<svg width="142" height="48" viewBox="0 0 142 48" fill="none" xmlns="http://www.w3.org/2000/svg">
<path d="M15.1871 13.2982H12.4951V35.2689H15.1871V13.2982Z" fill="#0163FF"/>
<path d="M35.6403 13.7449H32.9482V34.3084H35.6403V13.7449Z" fill="#0163FF"/>
<path d="M15.112 13.2019L13.2085 15.1054L33.5548 35.4518L35.4583 33.5483L15.112 13.2019Z" fill="#0163FF"/>
<path d="M44.212 27.7903C46.305 27.7903 48.0017 26.0937 48.0017 24.0007C48.0017 21.9078 46.305 20.2111 44.212 20.2111C42.119 20.2111 40.4224 21.9078 40.4224 24.0007C40.4224 26.0937 42.119 27.7903 44.212 27.7903Z" fill="#0163FF"/>
<path d="M34.108 37.893C36.201 37.893 37.8977 36.1963 37.8977 34.1034C37.8977 32.0105 36.201 30.3138 34.108 30.3138C32.015 30.3138 30.3184 32.0105 30.3184 34.1034C30.3184 36.1963 32.015 37.893 34.108 37.893Z" fill="#0163FF"/>
<path d="M24.0035 48C26.0965 48 27.7932 46.3033 27.7932 44.2104C27.7932 42.1174 26.0965 40.4208 24.0035 40.4208C21.9106 40.4208 20.2139 42.1174 20.2139 44.2104C20.2139 46.3033 21.9106 48 24.0035 48Z" fill="#0163FF"/>
<path d="M34.108 17.6859C36.201 17.6859 37.8977 15.9892 37.8977 13.8963C37.8977 11.8034 36.201 10.1067 34.108 10.1067C32.015 10.1067 30.3184 11.8034 30.3184 13.8963C30.3184 15.9892 32.015 17.6859 34.108 17.6859Z" fill="#0163FF"/>
<path d="M24.0035 27.7874C26.0965 27.7874 27.7932 26.0907 27.7932 23.9978C27.7932 21.9048 26.0965 20.2082 24.0035 20.2082C21.9106 20.2082 20.2139 21.9048 20.2139 23.9978C20.2139 26.0907 21.9106 27.7874 24.0035 27.7874Z" fill="#0163FF"/>
<path d="M13.8995 37.8956C15.9925 37.8956 17.6892 36.1989 17.6892 34.106C17.6892 32.013 15.9925 30.3163 13.8995 30.3163C11.8065 30.3163 10.1099 32.013 10.1099 34.106C10.1099 36.1989 11.8065 37.8956 13.8995 37.8956Z" fill="#0163FF"/>
<path d="M23.9981 7.57921C26.0911 7.57921 27.7878 5.88255 27.7878 3.78961C27.7878 1.69666 26.0911 0 23.9981 0C21.9052 0 20.2085 1.69666 20.2085 3.78961C20.2085 5.88255 21.9052 7.57921 23.9981 7.57921Z" fill="#0163FF"/>
<path d="M13.8995 17.6808C15.9925 17.6808 17.6892 15.9841 17.6892 13.8912C17.6892 11.7982 15.9925 10.1016 13.8995 10.1016C11.8065 10.1016 10.1099 11.7982 10.1099 13.8912C10.1099 15.9841 11.8065 17.6808 13.8995 17.6808Z" fill="#0163FF"/>
<path d="M3.78965 27.7889C5.88262 27.7889 7.5793 26.0922 7.5793 23.9993C7.5793 21.9063 5.88262 20.2097 3.78965 20.2097C1.69669 20.2097 0 21.9063 0 23.9993C0 26.0922 1.69669 27.7889 3.78965 27.7889Z" fill="#0163FF"/>
<path d="M71.8246 16.0421C73.5988 16.0421 75.0202 16.6016 76.0893 17.7207C77.1577 18.8397 77.6923 20.3573 77.6923 22.2726V31.558H75.0609V22.4238C75.0609 21.2138 74.7282 20.2664 74.0628 19.5807C73.3973 18.8953 72.4797 18.5523 71.3103 18.5523C69.9593 18.5523 68.8907 18.971 68.1044 19.8075C67.318 20.6443 66.9248 21.8896 66.9248 23.5427V31.5578H64.2935V16.435H66.9248V18.6127C67.9729 16.8992 69.6063 16.0421 71.8246 16.0421Z" fill="white"/>
<path d="M95.8727 25.2067H83.1995C83.4615 26.5375 84.0766 27.5809 85.0445 28.3371C86.0125 29.0932 87.2223 29.4712 88.6741 29.4712C90.6702 29.4712 92.1222 28.7353 93.0293 27.2632L95.2677 28.5337C93.7753 30.8124 91.5572 31.9513 88.6134 31.9513C86.234 31.9513 84.2779 31.2056 82.7457 29.7132C81.2531 28.181 80.5073 26.2756 80.5073 23.9967C80.5073 21.6979 81.2432 19.803 82.7153 18.3104C84.187 16.7982 86.0924 16.0421 88.4318 16.0421C90.6497 16.0421 92.4545 16.8284 93.8457 18.4013C95.257 19.9339 95.963 21.8093 95.963 24.0269C95.9634 24.4104 95.9331 24.8035 95.8727 25.2067ZM88.4322 18.5222C87.0409 18.5222 85.8763 18.9156 84.9386 19.7018C84.0011 20.4881 83.4211 21.5573 83.1995 22.9078H93.3018C93.0798 21.5165 92.5253 20.438 91.6382 19.6715C90.7508 18.9057 89.6822 18.5222 88.4322 18.5222Z" fill="white"/>
<path d="M111.723 29.6529C110.191 31.1855 108.305 31.9515 106.067 31.9515C103.829 31.9515 101.943 31.1857 100.411 29.6529C98.8784 28.1208 98.1123 26.235 98.1123 23.9969C98.1123 21.7586 98.8782 19.8736 100.411 18.3409C101.943 16.8087 103.829 16.0421 106.067 16.0421C108.305 16.0421 110.191 16.8087 111.723 18.3409C113.276 19.8939 114.052 21.7788 114.052 23.9969C114.052 26.2152 113.276 28.1003 111.723 29.6529ZM106.067 29.3807C107.58 29.3807 108.85 28.8664 109.878 27.838C110.907 26.8096 111.421 25.5294 111.421 23.9969C111.421 22.4648 110.906 21.184 109.878 20.1558C108.85 19.1274 107.58 18.6133 106.067 18.6133C104.575 18.6133 103.315 19.1274 102.286 20.1558C101.258 21.1842 100.744 22.4648 100.744 23.9969C100.744 25.5294 101.258 26.8098 102.286 27.838C103.315 28.8664 104.574 29.3807 106.067 29.3807Z" fill="white"/>
<path d="M119.795 16.4352V18.9758C120.662 17.1006 122.235 16.1629 124.514 16.1629V18.9153C123.223 18.8547 122.114 19.1979 121.187 19.9437C120.259 20.6899 119.795 21.8899 119.795 23.5428V31.5579H117.164V16.4352H119.795Z" fill="white"/>
<path d="M139.035 29.6529C137.503 31.1855 135.617 31.9515 133.379 31.9515C131.141 31.9515 129.255 31.1857 127.723 29.6529C126.19 28.1208 125.424 26.235 125.424 23.9969C125.424 21.7586 126.19 19.8736 127.723 18.3409C129.255 16.8087 131.141 16.0421 133.379 16.0421C135.617 16.0421 137.503 16.8087 139.035 18.3409C140.588 19.8939 141.364 21.7788 141.364 23.9969C141.364 26.2152 140.588 28.1003 139.035 29.6529ZM133.379 29.3807C134.892 29.3807 136.162 28.8664 137.19 27.838C138.219 26.8096 138.733 25.5294 138.733 23.9969C138.733 22.4648 138.218 21.184 137.19 20.1558C136.162 19.1274 134.892 18.6133 133.379 18.6133C131.887 18.6133 130.627 19.1274 129.598 20.1558C128.57 21.1842 128.056 22.4648 128.056 23.9969C128.056 25.5294 128.57 26.8098 129.598 27.838C130.627 28.8664 131.887 29.3807 133.379 29.3807Z" fill="white"/>
</svg>
