<svg width="48" height="48" viewBox="0 0 48 48" fill="none" xmlns="http://www.w3.org/2000/svg">
<path d="M15.1874 13.2982H12.4954V35.2689H15.1874V13.2982Z" fill="#0163FF"/>
<path d="M35.6405 13.7449H32.9485V34.3084H35.6405V13.7449Z" fill="#0163FF"/>
<path d="M15.1123 13.2019L13.2087 15.1054L33.5551 35.4518L35.4586 33.5483L15.1123 13.2019Z" fill="#0163FF"/>
<path d="M44.2118 27.7903C46.3047 27.7903 48.0014 26.0937 48.0014 24.0007C48.0014 21.9078 46.3047 20.2111 44.2118 20.2111C42.1188 20.2111 40.4221 21.9078 40.4221 24.0007C40.4221 26.0937 42.1188 27.7903 44.2118 27.7903Z" fill="#0163FF"/>
<path d="M34.108 37.893C36.201 37.893 37.8977 36.1963 37.8977 34.1034C37.8977 32.0105 36.201 30.3138 34.108 30.3138C32.015 30.3138 30.3184 32.0105 30.3184 34.1034C30.3184 36.1963 32.015 37.893 34.108 37.893Z" fill="#0163FF"/>
<path d="M24.0033 48C26.0962 48 27.7929 46.3033 27.7929 44.2104C27.7929 42.1174 26.0962 40.4208 24.0033 40.4208C21.9103 40.4208 20.2136 42.1174 20.2136 44.2104C20.2136 46.3033 21.9103 48 24.0033 48Z" fill="#0163FF"/>
<path d="M34.108 17.6859C36.201 17.6859 37.8977 15.9892 37.8977 13.8963C37.8977 11.8034 36.201 10.1067 34.108 10.1067C32.015 10.1067 30.3184 11.8034 30.3184 13.8963C30.3184 15.9892 32.015 17.6859 34.108 17.6859Z" fill="#0163FF"/>
<path d="M24.0033 27.7874C26.0962 27.7874 27.7929 26.0907 27.7929 23.9978C27.7929 21.9048 26.0962 20.2082 24.0033 20.2082C21.9103 20.2082 20.2136 21.9048 20.2136 23.9978C20.2136 26.0907 21.9103 27.7874 24.0033 27.7874Z" fill="#0163FF"/>
<path d="M13.8995 37.8956C15.9925 37.8956 17.6892 36.1989 17.6892 34.106C17.6892 32.013 15.9925 30.3163 13.8995 30.3163C11.8065 30.3163 10.1099 32.013 10.1099 34.106C10.1099 36.1989 11.8065 37.8956 13.8995 37.8956Z" fill="#0163FF"/>
<path d="M23.9981 7.57921C26.0911 7.57921 27.7878 5.88255 27.7878 3.78961C27.7878 1.69666 26.0911 0 23.9981 0C21.9052 0 20.2085 1.69666 20.2085 3.78961C20.2085 5.88255 21.9052 7.57921 23.9981 7.57921Z" fill="#0163FF"/>
<path d="M13.8995 17.6808C15.9925 17.6808 17.6892 15.9841 17.6892 13.8912C17.6892 11.7982 15.9925 10.1016 13.8995 10.1016C11.8065 10.1016 10.1099 11.7982 10.1099 13.8912C10.1099 15.9841 11.8065 17.6808 13.8995 17.6808Z" fill="#0163FF"/>
<path d="M3.78965 27.7889C5.88262 27.7889 7.5793 26.0922 7.5793 23.9993C7.5793 21.9063 5.88262 20.2097 3.78965 20.2097C1.69669 20.2097 0 21.9063 0 23.9993C0 26.0922 1.69669 27.7889 3.78965 27.7889Z" fill="#0163FF"/>
</svg>
